RobotoSerifText-HairlineWdth450.ufo
<glyph name="quotesingle" format="2">
  <advance width="196.25"/>
  <unicode hex="0027"/>
  <outline>
    <contour>
      <point x="119.926" y="710.0" type="line"/>
      <point x="119.926" y="625.3"/>
      <point x="111.936" y="580.67"/>
      <point x="111.936" y="454.67" type="curve"/>
      <point x="84.31400000000001" y="454.67" type="line"/>
      <point x="84.31400000000001" y="580.67"/>
      <point x="76.324" y="624.3"/>
      <point x="76.324" y="710.0" type="curve"/>
    </contour>
  </outline>
</glyph>
<glyph name="less" format="2">
  <advance width="452.2"/>
  <unicode hex="003C"/>
  <outline>
    <contour>
      <point x="372.23400000000004" y="527.81" type="line"/>
      <point x="80.126" y="350.25" type="line"/>
      <point x="80.126" y="324.95" type="line"/>
      <point x="96.27600000000001" y="326.28" type="line"/>
      <point x="372.23400000000004" y="493.05" type="line"/>
    </contour>
    <contour>
      <point x="372.23400000000004" y="166.36" type="line"/>
      <point x="94.28999999999999" y="335.27" type="line"/>
      <point x="80.126" y="335.46" type="line"/>
      <point x="80.126" y="309.79" type="line"/>
      <point x="372.23400000000004" y="132.23" type="line"/>
    </contour>
  </outline>
</glyph>
<glyph name="I" format="2">
  <advance width="267"/>
  <unicode hex="0049"/>
  <anchor x="133.64" y="741.0" name="top"/>
  <anchor x="173.786" y="0.0" name="right"/>
  <anchor x="133.64" y="0.0" name="bottom"/>
  <outline>
    <contour>
      <point x="114.05" y="64.81" type="line" smooth="yes"/>
      <point x="114.05" y="35.81"/>
      <point x="84.65" y="28.81"/>
      <point x="45.0" y="28.81" type="curve" smooth="yes"/>
      <point x="36.2" y="28.81" type="line"/>
      <point x="36.2" y="0.0" type="line"/>
      <point x="230.458" y="0.0" type="line"/>
      <point x="230.458" y="28.81" type="line"/>
      <point x="221.65800000000002" y="28.81" type="line" smooth="yes"/>
      <point x="182.096" y="28.81"/>
      <point x="153.15800000000002" y="35.81"/>
      <point x="153.15800000000002" y="64.81" type="curve" smooth="yes"/>
      <point x="153.15800000000002" y="645.19" type="line" smooth="yes"/>
      <point x="153.15800000000002" y="674.19"/>
      <point x="182.096" y="681.19"/>
      <point x="221.65800000000002" y="681.19" type="curve" smooth="yes"/>
      <point x="230.458" y="681.19" type="line"/>
      <point x="230.458" y="710.0" type="line"/>
      <point x="36.2" y="710.0" type="line"/>
      <point x="36.2" y="681.19" type="line"/>
      <point x="45.0" y="681.19" type="line" smooth="yes"/>
      <point x="84.65" y="681.19"/>
      <point x="114.05" y="674.19"/>
      <point x="114.05" y="645.19" type="curve" smooth="yes"/>
    </contour>
  </outline>
</glyph>
<glyph name="R" format="2">
  <advance width="535"/>
  <unicode hex="0052"/>
  <anchor x="295.3" y="741.0" name="top"/>
  <anchor x="295.3" y="0.0" name="bottom"/>
  <outline>
    <contour>
      <point x="287.192" y="330.63" type="line"/>
      <point x="322.56" y="345.63" type="line"/>
      <point x="447.974" y="56.81" type="line" smooth="yes"/>
      <point x="458.312" y="33.81"/>
      <point x="478.97" y="28.81"/>
      <point x="507.05" y="28.81" type="curve" smooth="yes"/>
      <point x="516.836" y="28.81" type="line"/>
      <point x="516.836" y="0.0" type="line"/>
      <point x="426.858" y="0.0" type="line"/>
    </contour>
    <contour>
      <point x="36.2" y="0.0" type="line"/>
      <point x="36.2" y="28.81" type="line"/>
      <point x="45.0" y="28.81" type="line" smooth="yes"/>
      <point x="84.65" y="28.81"/>
      <point x="114.05" y="35.81"/>
      <point x="114.05" y="64.81" type="curve" smooth="yes"/>
      <point x="114.05" y="645.19" type="line" smooth="yes"/>
      <point x="114.05" y="674.19"/>
      <point x="84.65" y="681.19"/>
      <point x="45.0" y="681.19" type="curve" smooth="yes"/>
      <point x="36.2" y="681.19" type="line"/>
      <point x="36.2" y="710.0" type="line"/>
      <point x="257.142" y="710.0" type="line" smooth="yes"/>
      <point x="374.994" y="710.0"/>
      <point x="451.236" y="636.56"/>
      <point x="451.236" y="515.63" type="curve" smooth="yes"/>
      <point x="451.236" y="415.49"/>
      <point x="395.77" y="345.56"/>
      <point x="314.076" y="325.98" type="curve" smooth="yes"/>
      <point x="296.07" y="322.12"/>
      <point x="278.512" y="320.26"/>
      <point x="258.504" y="320.26" type="curve" smooth="yes"/>
      <point x="143.4" y="320.26" type="line"/>
      <point x="143.4" y="348.44" type="line"/>
      <point x="258.504" y="348.44" type="line" smooth="yes"/>
      <point x="360.634" y="348.44"/>
      <point x="409.588" y="424.7"/>
      <point x="409.588" y="515.63" type="curve" smooth="yes"/>
      <point x="409.588" y="622.82"/>
      <point x="353.69" y="682.03"/>
      <point x="255.692" y="682.03" type="curve" smooth="yes"/>
      <point x="152.998" y="682.03" type="line"/>
      <point x="152.998" y="38.81" type="line" smooth="yes"/>
      <point x="152.998" y="31.81"/>
      <point x="187.748" y="28.81"/>
      <point x="215.148" y="28.81" type="curve" smooth="yes"/>
      <point x="223.05" y="28.81" type="line"/>
      <point x="223.05" y="0.0" type="line"/>
    </contour>
  </outline>
</glyph>
<glyph name="W" format="2">
  <advance width="784.5319999999999"/>
  <unicode hex="0057"/>
  <anchor x="400.16" y="741.0" name="top"/>
  <outline>
    <contour>
      <point x="7.568" y="710.0" type="line"/>
      <point x="7.568" y="681.19" type="line"/>
      <point x="11.93" y="681.19" type="line" smooth="yes"/>
      <point x="41.78" y="681.19"/>
      <point x="60.38" y="678.19"/>
      <point x="67.73" y="644.19" type="curve" smooth="yes"/>
      <point x="209.832" y="0.0" type="line"/>
      <point x="253.78199999999998" y="0.0" type="line"/>
      <point x="399.76800000000003" y="687.8" type="line"/>
      <point x="386.068" y="687.8" type="line"/>
      <point x="541.156" y="0.0" type="line"/>
      <point x="586.542" y="0.0" type="line"/>
      <point x="717.1759999999999" y="638.19" type="line" smooth="yes"/>
      <point x="724.5260000000001" y="672.19"/>
      <point x="744.576" y="681.19"/>
      <point x="772.976" y="681.19" type="curve" smooth="yes"/>
      <point x="776.876" y="681.19" type="line"/>
      <point x="776.876" y="710.0" type="line"/>
      <point x="611.224" y="710.0" type="line"/>
      <point x="611.224" y="681.19" type="line"/>
      <point x="623.474" y="681.19" type="line" smooth="yes"/>
      <point x="654.324" y="681.19"/>
      <point x="691.062" y="674.19"/>
      <point x="691.062" y="663.19" type="curve"/>
      <point x="561.386" y="12.55" type="line"/>
      <point x="574.318" y="12.55" type="line"/>
      <point x="417.242" y="710.0" type="line"/>
      <point x="374.844" y="710.0" type="line"/>
      <point x="228.236" y="17.04" type="line"/>
      <point x="242.168" y="17.04" type="line"/>
      <point x="101.402" y="671.19" type="line"/>
      <point x="101.402" y="678.19"/>
      <point x="140.052" y="681.19"/>
      <point x="170.814" y="681.19" type="curve" smooth="yes"/>
      <point x="184.602" y="681.19" type="line"/>
      <point x="184.602" y="710.0" type="line"/>
    </contour>
  </outline>
</glyph>
<glyph name="bracketleft" format="2">
  <advance width="225.15"/>
  <unicode hex="005B"/>
  <outline>
    <contour>
      <point x="47.114000000000004" y="750.0" type="line"/>
      <point x="47.114000000000004" y="-130.0" type="line"/>
      <point x="84.582" y="-130.0" type="line"/>
      <point x="84.582" y="750.0" type="line"/>
    </contour>
    <contour>
      <point x="205.724" y="750.0" type="line"/>
      <point x="72.4" y="750.0" type="line"/>
      <point x="72.4" y="721.4" type="line"/>
      <point x="205.724" y="721.4" type="line"/>
    </contour>
    <contour>
      <point x="205.724" y="-101.4" type="line"/>
      <point x="72.4" y="-101.4" type="line"/>
      <point x="72.4" y="-130.0" type="line"/>
      <point x="205.724" y="-130.0" type="line"/>
    </contour>
  </outline>
</glyph>
<glyph name="d" format="2">
  <advance width="491"/>
  <unicode hex="0064"/>
  <anchor x="461.588" y="735.0" name="right"/>
  <anchor x="225.626" y="0.0" name="bottom"/>
  <outline>
    <contour>
      <point x="363.884" y="0.0" type="line"/>
      <point x="469.562" y="0.0" type="line"/>
      <point x="469.562" y="25.74" type="line"/>
      <point x="468.562" y="25.74" type="line"/>
      <point x="429.912" y="25.74"/>
      <point x="401.512" y="32.74"/>
      <point x="401.512" y="61.74" type="curve" smooth="yes"/>
      <point x="401.512" y="735.0" type="line"/>
      <point x="294.976" y="735.0" type="line"/>
      <point x="294.976" y="711.47" type="line"/>
      <point x="302.936" y="709.47" type="line" smooth="yes"/>
      <point x="343.818" y="699.4"/>
      <point x="362.868" y="693.47"/>
      <point x="362.868" y="664.47" type="curve" smooth="yes"/>
      <point x="362.868" y="134.26" type="line"/>
      <point x="363.884" y="134.47" type="line"/>
    </contour>
    <contour>
      <point x="207.578" y="-10.0" type="curve" smooth="yes"/>
      <point x="279.424" y="-10.0"/>
      <point x="325.48" y="39.77"/>
      <point x="367.95799999999997" y="119.84" type="curve"/>
      <point x="367.95799999999997" y="168.53" type="line"/>
      <point x="326.962" y="78.81"/>
      <point x="278.598" y="18.11"/>
      <point x="212.478" y="18.11" type="curve" smooth="yes"/>
      <point x="123.062" y="18.11"/>
      <point x="77.30799999999999" y="106.74"/>
      <point x="77.30799999999999" y="250.0" type="curve" smooth="yes"/>
      <point x="77.30799999999999" y="392.98"/>
      <point x="128.39600000000002" y="489.89"/>
      <point x="220.262" y="489.89" type="curve" smooth="yes"/>
      <point x="286.368" y="489.89"/>
      <point x="334.426" y="426.56"/>
      <point x="367.95799999999997" y="332.7" type="curve"/>
      <point x="367.95799999999997" y="389.53" type="line"/>
      <point x="330.366" y="472.09"/>
      <point x="286.528" y="518.0"/>
      <point x="218.274" y="518.0" type="curve" smooth="yes"/>
      <point x="110.166" y="518.0"/>
      <point x="35.982" y="407.93"/>
      <point x="35.982" y="250.0" type="curve" smooth="yes"/>
      <point x="35.982" y="92.93"/>
      <point x="102.76" y="-10.0"/>
    </contour>
  </outline>
</glyph>
<glyph name="j" format="2">
  <advance width="209.17399999999998"/>
  <unicode hex="006A"/>
  <anchor x="110.518" y="551.0" name="top"/>
  <outline>
    <contour>
      <point x="92.16" y="-77.1" type="line" smooth="yes"/>
      <point x="92.16" y="-173.96"/>
      <point x="59.86" y="-206.1"/>
      <point x="8.814" y="-206.1" type="curve" smooth="yes"/>
      <point x="-20.482" y="-206.1"/>
      <point x="-41.59" y="-196.82"/>
      <point x="-60.19" y="-187.75" type="curve"/>
      <point x="-60.19" y="-219.72" type="line"/>
      <point x="-45.2" y="-228.79"/>
      <point x="-22.526" y="-236.0"/>
      <point x="9.206" y="-236.0" type="curve" smooth="yes"/>
      <point x="68.592" y="-236.0"/>
      <point x="130.804" y="-204.7"/>
      <point x="130.804" y="-77.1" type="curve" smooth="yes"/>
      <point x="130.804" y="508.0" type="line"/>
      <point x="22.932" y="508.0" type="line"/>
      <point x="22.932" y="484.47" type="line"/>
      <point x="31.516" y="482.47" type="line" smooth="yes"/>
      <point x="72.328" y="472.26"/>
      <point x="92.16" y="466.47"/>
      <point x="92.16" y="437.47" type="curve" smooth="yes"/>
    </contour>
    <contour>
      <point x="100.604" y="659.66" type="curve" smooth="yes"/>
      <point x="120.772" y="659.66"/>
      <point x="135.56" y="673.03"/>
      <point x="135.56" y="698.19" type="curve" smooth="yes"/>
      <point x="135.56" y="723.42"/>
      <point x="120.772" y="736.79"/>
      <point x="100.604" y="736.79" type="curve" smooth="yes"/>
      <point x="80.436" y="736.79"/>
      <point x="65.56" y="723.42"/>
      <point x="65.56" y="698.19" type="curve" smooth="yes"/>
      <point x="65.56" y="673.03"/>
      <point x="80.436" y="659.66"/>
    </contour>
  </outline>
</glyph>
<glyph name="s" format="2">
  <advance width="363.12"/>
  <unicode hex="0073"/>
  <anchor x="181.292" y="546.0" name="top"/>
  <anchor x="181.684" y="0.0" name="bottom"/>
  <outline>
    <contour>
      <point x="293.744" y="126.65" type="curve" smooth="yes"/>
      <point x="293.744" y="59.88"/>
      <point x="252.122" y="18.11"/>
      <point x="185.35" y="18.11" type="curve" smooth="yes"/>
      <point x="134.058" y="18.11"/>
      <point x="93.176" y="31.83"/>
      <point x="59.224000000000004" y="67.41" type="curve"/>
      <point x="58.208" y="57.46"/>
      <point x="60.644000000000005" y="42.02"/>
      <point x="75.262" y="26.58" type="curve"/>
      <point x="75.262" y="124.69" type="line"/>
      <point x="31.356" y="124.69" type="line"/>
      <point x="31.356" y="43.93" type="line"/>
      <point x="66.658" y="11.79"/>
      <point x="117.95" y="-10.0"/>
      <point x="185.422" y="-10.0" type="curve" smooth="yes"/>
      <point x="277.238" y="-10.0"/>
      <point x="331.676" y="52.86"/>
      <point x="331.676" y="131.3" type="curve" smooth="yes"/>
      <point x="331.676" y="224.673358108004"/>
      <point x="265.842" y="251.88"/>
      <point x="202.3" y="277.23" type="curve" smooth="yes"/>
      <point x="143.37" y="300.58"/>
      <point x="86.584" y="313.51"/>
      <point x="86.584" y="390.63" type="curve" smooth="yes"/>
      <point x="86.584" y="447.33"/>
      <point x="120.99799999999999" y="489.89"/>
      <point x="185.19" y="489.89" type="curve" smooth="yes"/>
      <point x="226.9" y="489.89"/>
      <point x="260.592" y="472.89"/>
      <point x="281.09000000000003" y="446.38" type="curve"/>
      <point x="281.354" y="453.98"/>
      <point x="275.132" y="464.28"/>
      <point x="265.358" y="472.91" type="curve"/>
      <point x="265.358" y="398.17" type="line"/>
      <point x="308.944" y="398.17" type="line"/>
      <point x="308.944" y="472.93" type="line"/>
      <point x="287.068" y="494.14"/>
      <point x="247.62" y="518.0"/>
      <point x="185.19" y="518.0" type="curve" smooth="yes"/>
      <point x="101.248" y="518.0"/>
      <point x="48.884" y="465.49"/>
      <point x="48.884" y="387.12" type="curve" smooth="yes"/>
      <point x="48.884" y="296.8649142856455"/>
      <point x="114.458791340608" y="272.093692996173"/>
      <point x="177.594" y="248.96" type="curve" smooth="yes"/>
      <point x="236.689162310454" y="226.602743230682"/>
      <point x="293.744" y="205.950058823756"/>
    </contour>
  </outline>
</glyph>
<glyph name="u" format="2">
  <advance width="471"/>
  <unicode hex="0075"/>
  <anchor x="217.0" y="551.0" name="top"/>
  <anchor x="339.578" y="0.0" name="right"/>
  <anchor x="216.608" y="0.0" name="bottom"/>
  <outline>
    <contour>
      <point x="123.076" y="508.0" type="line"/>
      <point x="16.15" y="508.0" type="line"/>
      <point x="16.15" y="482.33" type="line"/>
      <point x="18.936" y="482.47" type="line" smooth="yes"/>
      <point x="58.44" y="483.03"/>
      <point x="84.432" y="476.1"/>
      <point x="84.432" y="447.1" type="curve" smooth="yes"/>
      <point x="84.432" y="151.0" type="line" smooth="yes"/>
      <point x="84.432" y="40.0"/>
      <point x="129.39" y="-10.0"/>
      <point x="203.56" y="-10.0" type="curve" smooth="yes"/>
      <point x="264.114" y="-10.0"/>
      <point x="308.65" y="26.07"/>
      <point x="351.128" y="99.14" type="curve"/>
      <point x="351.128" y="140.32" type="line"/>
      <point x="312.332" y="66.32"/>
      <point x="267.782" y="20.9"/>
      <point x="210.476" y="20.9" type="curve" smooth="yes"/>
      <point x="145.01" y="20.9"/>
      <point x="123.076" y="64.53"/>
      <point x="123.076" y="161.93" type="curve"/>
    </contour>
    <contour>
      <point x="385.144" y="508.0" type="line"/>
      <point x="271.31600000000003" y="508.0" type="line"/>
      <point x="271.31600000000003" y="482.33" type="line"/>
      <point x="275.35" y="482.54" type="line"/>
      <point x="320.348" y="483.03"/>
      <point x="346.5" y="476.1"/>
      <point x="346.5" y="447.1" type="curve" smooth="yes"/>
      <point x="346.5" y="117.0" type="line"/>
      <point x="347.676" y="117.91" type="line"/>
      <point x="347.676" y="0.0" type="line"/>
      <point x="454.644" y="0.0" type="line"/>
      <point x="454.644" y="25.74" type="line"/>
      <point x="452.194" y="25.74" type="line" smooth="yes"/>
      <point x="413.456" y="25.74"/>
      <point x="385.144" y="32.74"/>
      <point x="385.144" y="61.74" type="curve" smooth="yes"/>
    </contour>
  </outline>
</glyph>
<glyph name="y" format="2">
  <advance width="458"/>
  <unicode hex="0079"/>
  <anchor x="229.364" y="551.0" name="top"/>
  <anchor x="237.93200000000002" y="-211.0" name="bottom"/>
  <outline>
    <contour>
      <point x="218.14000000000001" y="-14.0" type="line"/>
      <point x="234.54399999999998" y="8.0" type="line"/>
      <point x="240.228" y="32.16" type="line"/>
      <point x="101.852" y="470.05" type="line"/>
      <point x="101.852" y="477.05"/>
      <point x="140.964" y="479.05"/>
      <point x="173.264" y="479.05" type="curve" smooth="yes"/>
      <point x="174.802" y="479.05" type="line"/>
      <point x="174.802" y="508.0" type="line"/>
      <point x="7.176" y="508.0" type="line"/>
      <point x="7.176" y="479.05" type="line"/>
      <point x="8.176" y="479.05" type="line"/>
      <point x="40.476" y="479.05"/>
      <point x="60.454" y="472.05"/>
      <point x="69.788" y="444.05" type="curve" smooth="yes"/>
    </contour>
    <contour>
      <point x="69.474" y="-229.86" type="curve" smooth="yes"/>
      <point x="155.18" y="-229.86"/>
      <point x="203.054" y="-143.23"/>
      <point x="255.882" y="17.0" type="curve" smooth="yes"/>
      <point x="388.622" y="434.05" type="line" smooth="yes"/>
      <point x="400.944" y="471.05"/>
      <point x="425.284" y="479.05"/>
      <point x="449.23400000000004" y="479.05" type="curve"/>
      <point x="450.23400000000004" y="479.05" type="line"/>
      <point x="450.23400000000004" y="508.0" type="line"/>
      <point x="294.614" y="508.0" type="line"/>
      <point x="294.614" y="479.05" type="line"/>
      <point x="297.064" y="479.05" type="line" smooth="yes"/>
      <point x="329.36400000000003" y="479.05"/>
      <point x="363.11400000000003" y="470.05"/>
      <point x="363.11400000000003" y="457.05" type="curve"/>
      <point x="232.96" y="33.48" type="line"/>
      <point x="229.118" y="25.11" type="line" smooth="yes"/>
      <point x="169.664" y="-143.33"/>
      <point x="130.578" y="-189.45"/>
      <point x="71.46" y="-189.45" type="curve" smooth="yes"/>
      <point x="43.22" y="-189.45"/>
      <point x="18.573999999999998" y="-171.31"/>
      <point x="14.514" y="-170.38" type="curve"/>
      <point x="14.514" y="-212.93" type="line"/>
      <point x="22.954" y="-219.72"/>
      <point x="44.132" y="-229.86"/>
    </contour>
  </outline>
</glyph>
<glyph name="registered" format="2">
  <advance width="678.46"/>
  <unicode hex="00AE"/>
  <outline>
    <contour>
      <point x="64.054" y="355.0" type="curve" smooth="yes"/>
      <point x="64.054" y="555.98"/>
      <point x="179.45" y="709.4"/>
      <point x="339.15" y="709.4" type="curve" smooth="yes"/>
      <point x="498.85" y="709.4"/>
      <point x="614.406" y="555.98"/>
      <point x="614.406" y="355.0" type="curve" smooth="yes"/>
      <point x="614.406" y="154.02"/>
      <point x="498.85" y="0.5999999999999999"/>
      <point x="339.15" y="0.5999999999999999" type="curve" smooth="yes"/>
      <point x="179.45" y="0.5999999999999999"/>
      <point x="64.054" y="154.02"/>
    </contour>
    <contour>
      <point x="32.3" y="355.0" type="curve" smooth="yes"/>
      <point x="32.3" y="138.0"/>
      <point x="165.4" y="-28.0"/>
      <point x="339.15" y="-28.0" type="curve" smooth="yes"/>
      <point x="512.972" y="-28.0"/>
      <point x="646.16" y="138.0"/>
      <point x="646.16" y="355.0" type="curve" smooth="yes"/>
      <point x="646.16" y="572.0"/>
      <point x="512.972" y="738.0"/>
      <point x="339.15" y="738.0" type="curve" smooth="yes"/>
      <point x="165.4" y="738.0"/>
      <point x="32.3" y="572.0"/>
    </contour>
    <contour>
      <point x="211.44" y="153.0" type="line"/>
      <point x="345.428" y="153.0" type="line"/>
      <point x="345.428" y="178.95" type="line"/>
      <point x="328.034" y="178.95" type="line" smooth="yes"/>
      <point x="312.884" y="178.95"/>
      <point x="292.284" y="179.95"/>
      <point x="292.284" y="183.95" type="curve" smooth="yes"/>
      <point x="292.284" y="322.77" type="line"/>
      <point x="343.946" y="322.77" type="line" smooth="yes"/>
      <point x="416.0" y="322.77"/>
      <point x="466.916" y="369.63"/>
      <point x="466.916" y="443.35" type="curve" smooth="yes"/>
      <point x="466.916" y="515.14"/>
      <point x="419.9" y="557.0"/>
      <point x="346.396" y="557.0" type="curve" smooth="yes"/>
      <point x="211.44" y="557.0" type="line"/>
      <point x="211.44" y="531.05" type="line"/>
      <point x="216.34" y="531.05" type="line" smooth="yes"/>
      <point x="238.84" y="531.05"/>
      <point x="255.528" y="527.05"/>
      <point x="255.528" y="511.05" type="curve" smooth="yes"/>
      <point x="255.528" y="198.95" type="line" smooth="yes"/>
      <point x="255.528" y="182.95"/>
      <point x="238.84" y="178.95"/>
      <point x="216.34" y="178.95" type="curve" smooth="yes"/>
      <point x="211.44" y="178.95" type="line"/>
    </contour>
    <contour>
      <point x="346.324" y="528.05" type="line" smooth="yes"/>
      <point x="400.934" y="528.05"/>
      <point x="427.71000000000004" y="503.84"/>
      <point x="427.71000000000004" y="443.35" type="curve" smooth="yes"/>
      <point x="427.71000000000004" y="384.07"/>
      <point x="400.934" y="351.72"/>
      <point x="343.874" y="351.72" type="curve" smooth="yes"/>
      <point x="292.284" y="351.72" type="line"/>
      <point x="292.284" y="528.05" type="line"/>
    </contour>
    <contour>
      <point x="347.76" y="341.42" type="line"/>
      <point x="424.11400000000003" y="152.0" type="line"/>
      <point x="485.3" y="152.0" type="line"/>
      <point x="485.3" y="177.95" type="line"/>
      <point x="477.716" y="177.95" type="line" smooth="yes"/>
      <point x="464.914" y="177.95"/>
      <point x="453.664" y="180.95"/>
      <point x="447.852" y="193.95" type="curve" smooth="yes"/>
      <point x="382.834" y="348.28" type="line"/>
    </contour>
  </outline>
</glyph>
<glyph name="macron" format="2">
  <advance width="403.2"/>
  <unicode hex="00AF"/>
  <anchor x="201.6" y="577.36" name="_top"/>
  <outline>
    <contour>
      <point x="98.216" y="688.86" type="line"/>
      <point x="98.216" y="661.31" type="line"/>
      <point x="305.534" y="661.31" type="line"/>
      <point x="305.534" y="688.86" type="line"/>
    </contour>
  </outline>
</glyph>
<glyph name="ordmasculine" format="2">
  <advance width="387.868"/>
  <unicode hex="00BA"/>
  <outline>
    <contour>
      <point x="193.934" y="320.7" type="curve" smooth="yes"/>
      <point x="281.544" y="320.7"/>
      <point x="344.03" y="400.56"/>
      <point x="344.03" y="520.35" type="curve" smooth="yes"/>
      <point x="344.03" y="637.0"/>
      <point x="281.544" y="720.0"/>
      <point x="193.934" y="720.0" type="curve" smooth="yes"/>
      <point x="106.324" y="720.0"/>
      <point x="43.838" y="637.0"/>
      <point x="43.838" y="520.35" type="curve" smooth="yes"/>
      <point x="43.838" y="400.56"/>
      <point x="106.324" y="320.7"/>
    </contour>
    <contour>
      <point x="193.934" y="344.74" type="curve" smooth="yes"/>
      <point x="127.452" y="344.74"/>
      <point x="82.41" y="414.37"/>
      <point x="82.41" y="520.35" type="curve" smooth="yes"/>
      <point x="82.41" y="621.26"/>
      <point x="127.452" y="695.96"/>
      <point x="193.934" y="695.96" type="curve" smooth="yes"/>
      <point x="260.416" y="695.96"/>
      <point x="305.45799999999997" y="621.26"/>
      <point x="305.45799999999997" y="520.35" type="curve" smooth="yes"/>
      <point x="305.45799999999997" y="414.37"/>
      <point x="260.416" y="344.74"/>
    </contour>
  </outline>
</glyph>
<glyph name="Thorn" format="2">
  <advance width="483.06"/>
  <unicode hex="00DE"/>
  <outline>
    <contour>
      <point x="236.89600000000002" y="710.0" type="line"/>
      <point x="36.2" y="710.0" type="line"/>
      <point x="36.2" y="681.19" type="line"/>
      <point x="45.0" y="681.19" type="line" smooth="yes"/>
      <point x="84.65" y="681.19"/>
      <point x="114.05" y="674.19"/>
      <point x="114.05" y="645.19" type="curve" smooth="yes"/>
      <point x="114.05" y="64.81" type="line" smooth="yes"/>
      <point x="114.05" y="35.81"/>
      <point x="84.65" y="28.81"/>
      <point x="45.0" y="28.81" type="curve" smooth="yes"/>
      <point x="36.2" y="28.81" type="line"/>
      <point x="36.2" y="0.0" type="line"/>
      <point x="236.89600000000002" y="0.0" type="line"/>
      <point x="236.89600000000002" y="28.81" type="line"/>
      <point x="215.308" y="28.81" type="line" smooth="yes"/>
      <point x="187.90800000000002" y="28.81"/>
      <point x="153.15800000000002" y="31.81"/>
      <point x="153.15800000000002" y="38.81" type="curve" smooth="yes"/>
      <point x="153.15800000000002" y="671.19" type="line" smooth="yes"/>
      <point x="153.15800000000002" y="678.19"/>
      <point x="187.90800000000002" y="681.19"/>
      <point x="215.308" y="681.19" type="curve" smooth="yes"/>
      <point x="236.89600000000002" y="681.19" type="line"/>
    </contour>
    <contour>
      <point x="135.95600000000002" y="159.35" type="line"/>
      <point x="254.43200000000002" y="159.35" type="line" smooth="yes"/>
      <point x="390.024" y="159.35"/>
      <point x="453.918" y="241.07"/>
      <point x="453.918" y="360.86" type="curve" smooth="yes"/>
      <point x="453.918" y="480.65"/>
      <point x="393.474" y="555.37"/>
      <point x="258.332" y="555.37" type="curve" smooth="yes"/>
      <point x="138.076" y="555.37" type="line"/>
      <point x="135.95600000000002" y="527.4" type="line"/>
      <point x="258.1" y="527.4" type="line" smooth="yes"/>
      <point x="368.432" y="527.4"/>
      <point x="411.808" y="466.98"/>
      <point x="411.808" y="359.79" type="curve" smooth="yes"/>
      <point x="411.808" y="254.81"/>
      <point x="368.65" y="187.32"/>
      <point x="254.2" y="187.32" type="curve" smooth="yes"/>
      <point x="135.95600000000002" y="187.32" type="line"/>
    </contour>
  </outline>
</glyph>
<glyph name="hbar" format="2">
  <advance width="490.452"/>
  <unicode hex="0127"/>
  <outline>
    <contour>
      <point x="468.576" y="0.0" type="line"/>
      <point x="468.576" y="25.74" type="line"/>
      <point x="466.664" y="25.74" type="line" smooth="yes"/>
      <point x="428.086" y="25.74"/>
      <point x="400.526" y="32.74"/>
      <point x="400.526" y="61.74" type="curve" smooth="yes"/>
      <point x="400.526" y="357.0" type="line" smooth="yes"/>
      <point x="400.526" y="468.0"/>
      <point x="354.88800000000003" y="518.0"/>
      <point x="279.558" y="518.0" type="curve" smooth="yes"/>
      <point x="206.36" y="518.0"/>
      <point x="156.924" y="468.49"/>
      <point x="105.168" y="367.54" type="curve"/>
      <point x="115.552" y="336.12" type="line"/>
      <point x="158.94" y="429.4"/>
      <point x="207.768" y="487.1"/>
      <point x="272.802" y="487.1" type="curve" smooth="yes"/>
      <point x="339.108" y="487.1"/>
      <point x="361.882" y="443.47"/>
      <point x="361.882" y="346.0" type="curve" smooth="yes"/>
      <point x="361.882" y="35.74" type="line" smooth="yes"/>
      <point x="361.882" y="28.74"/>
      <point x="325.682" y="25.74"/>
      <point x="303.182" y="25.74" type="curve" smooth="yes"/>
      <point x="301.27" y="25.74" type="line"/>
      <point x="301.27" y="0.0" type="line"/>
    </contour>
    <contour>
      <point x="96.452" y="735.0" type="line"/>
      <point x="96.452" y="61.74" type="line" smooth="yes"/>
      <point x="96.452" y="32.74"/>
      <point x="68.892" y="25.74"/>
      <point x="30.242" y="25.74" type="curve" smooth="yes"/>
      <point x="28.792" y="25.74" type="line"/>
      <point x="28.792" y="0.0" type="line"/>
      <point x="195.796" y="0.0" type="line"/>
      <point x="195.796" y="25.74" type="line"/>
      <point x="193.346" y="25.74" type="line" smooth="yes"/>
      <point x="170.758" y="25.74"/>
      <point x="135.096" y="28.74"/>
      <point x="135.096" y="35.74" type="curve"/>
      <point x="135.096" y="735.0" type="line"/>
    </contour>
    <contour>
      <point x="309.23199999999997" y="631.93" type="line"/>
      <point x="16.758" y="631.93" type="line"/>
      <point x="16.758" y="603.47" type="line"/>
      <point x="309.23199999999997" y="603.47" type="line"/>
    </contour>
  </outline>
</glyph>
<glyph name="dotlessi" format="2">
  <advance width="229.516"/>
  <unicode hex="0131"/>
  <anchor x="116.042" y="525.72" name="top"/>
  <outline>
    <contour>
      <point x="135.096" y="508.0" type="line"/>
      <point x="28.792" y="508.0" type="line"/>
      <point x="28.792" y="484.47" type="line"/>
      <point x="36.752" y="482.47" type="line" smooth="yes"/>
      <point x="77.474" y="472.4"/>
      <point x="96.452" y="466.47"/>
      <point x="96.452" y="437.47" type="curve" smooth="yes"/>
      <point x="96.452" y="61.74" type="line" smooth="yes"/>
      <point x="96.452" y="32.74"/>
      <point x="68.892" y="25.74"/>
      <point x="30.242" y="25.74" type="curve" smooth="yes"/>
      <point x="28.864" y="25.74" type="line"/>
      <point x="28.864" y="0.0" type="line"/>
      <point x="203.058" y="0.0" type="line"/>
      <point x="203.058" y="25.74" type="line"/>
      <point x="201.768" y="25.74" type="line" smooth="yes"/>
      <point x="162.656" y="25.74"/>
      <point x="135.096" y="32.74"/>
      <point x="135.096" y="61.74" type="curve" smooth="yes"/>
    </contour>
  </outline>
</glyph>
<glyph name="Ldot" format="2">
  <advance width="475.416"/>
  <unicode hex="013F"/>
  <outline>
    <contour>
      <point x="233.90800000000002" y="710.0" type="line"/>
      <point x="233.90800000000002" y="681.19" type="line"/>
      <point x="225.108" y="681.19" type="line" smooth="yes"/>
      <point x="183.008" y="681.19"/>
      <point x="153.15800000000002" y="674.19"/>
      <point x="153.15800000000002" y="645.19" type="curve" smooth="yes"/>
      <point x="153.15800000000002" y="27.97" type="line"/>
      <point x="298.85" y="27.97" type="line" smooth="yes"/>
      <point x="368.35" y="27.97"/>
      <point x="396.90999999999997" y="34.97"/>
      <point x="399.36" y="70.97" type="curve" smooth="yes"/>
      <point x="407.0" y="192.97" type="line"/>
      <point x="432.43399999999997" y="192.97" type="line"/>
      <point x="432.43399999999997" y="0.0" type="line"/>
      <point x="36.2" y="0.0" type="line"/>
      <point x="36.2" y="28.81" type="line"/>
      <point x="45.0" y="28.81" type="line" smooth="yes"/>
      <point x="84.65" y="28.81"/>
      <point x="114.05" y="35.81"/>
      <point x="114.05" y="64.81" type="curve" smooth="yes"/>
      <point x="114.05" y="645.19" type="line" smooth="yes"/>
      <point x="114.05" y="674.19"/>
      <point x="84.65" y="681.19"/>
      <point x="45.0" y="681.19" type="curve" smooth="yes"/>
      <point x="36.2" y="681.19" type="line"/>
      <point x="36.2" y="710.0" type="line"/>
    </contour>
    <component base="periodcentered" xOffset="319.456" yOffset="57.7"/>
  </outline>
</glyph>
<glyph name="Lslash" format="2">
  <advance width="475.416"/>
  <unicode hex="0141"/>
  <outline>
    <contour>
      <point x="36.2" y="230.8" type="line"/>
      <point x="36.2" y="268.7" type="line"/>
      <point x="326.14" y="519.58" type="line"/>
      <point x="326.14" y="481.68" type="line"/>
    </contour>
    <component base="L" xOffset="-43.69199999999999"/>
  </outline>
</glyph>
<glyph name="ohorn" format="2">
  <advance width="469.346"/>
  <unicode hex="01A1"/>
  <anchor x="229.62800000000001" y="538.0" name="top"/>
  <outline>
    <contour>
      <point x="248.75400000000002" y="494.77" type="curve"/>
      <point x="404.074" y="484.77"/>
      <point x="442.018" y="560.1"/>
      <point x="447.814" y="685.35" type="curve"/>
      <point x="410.346" y="685.35" type="line"/>
      <point x="404.172" y="555.21"/>
      <point x="374.034" y="518.0"/>
      <point x="230.846" y="518.0" type="curve"/>
      <point x="235.832" y="513.28"/>
      <point x="244.142" y="498.49"/>
    </contour>
    <contour>
      <point x="229.62800000000001" y="-12.14" type="curve"/>
      <point x="342.1" y="-12.14"/>
      <point x="423.18600000000004" y="94.86"/>
      <point x="423.18600000000004" y="252.93" type="curve" smooth="yes"/>
      <point x="423.18600000000004" y="377.42"/>
      <point x="371.284" y="472.56"/>
      <point x="290.602" y="502.21" type="curve"/>
      <point x="273.426" y="514.28"/>
      <point x="252.592" y="518.0"/>
      <point x="229.62800000000001" y="518.0" type="curve" smooth="yes"/>
      <point x="117.068" y="518.0"/>
      <point x="35.982" y="410.0"/>
      <point x="35.982" y="252.93" type="curve" smooth="yes"/>
      <point x="35.982" y="94.86"/>
      <point x="117.068" y="-12.14"/>
    </contour>
    <contour>
      <point x="229.62800000000001" y="15.969999999999999" type="curve"/>
      <point x="135.76" y="15.969999999999999"/>
      <point x="77.30799999999999" y="108.67"/>
      <point x="77.30799999999999" y="252.93" type="curve" smooth="yes"/>
      <point x="77.30799999999999" y="394.12"/>
      <point x="135.76" y="489.89"/>
      <point x="229.62800000000001" y="489.89" type="curve" smooth="yes"/>
      <point x="323.408" y="489.89"/>
      <point x="381.86" y="394.12"/>
      <point x="381.86" y="252.93" type="curve" smooth="yes"/>
      <point x="381.86" y="107.67"/>
      <point x="323.408" y="15.969999999999999"/>
    </contour>
  </outline>
</glyph>
<glyph name="verticallinemod" format="2">
  <advance width="403.2"/>
  <unicode hex="02C8"/>
  <outline>
    <contour>
      <point x="183.88" y="547.0" type="line"/>
      <point x="220.332" y="547.0" type="line"/>
      <point x="220.332" y="750.0" type="line"/>
      <point x="183.88" y="750.0" type="line"/>
    </contour>
  </outline>
</glyph>
<glyph name="quoteright" format="2">
  <advance width="161.39"/>
  <unicode hex="2019"/>
  <outline>
    <contour>
      <point x="55.878" y="530.93" type="line"/>
      <point x="98.39672730509842" y="572.1977719023163"/>
      <point x="120.828" y="614.78"/>
      <point x="120.828" y="670.1" type="curve" smooth="yes"/>
      <point x="120.828" y="700.63"/>
      <point x="105.74000000000001" y="715.0"/>
      <point x="85.608" y="715.0" type="curve" smooth="yes"/>
      <point x="67.60362162162161" y="715.0"/>
      <point x="53.826" y="701.77"/>
      <point x="53.826" y="683.89" type="curve" smooth="yes"/>
      <point x="53.826" y="665.08"/>
      <point x="66.498" y="651.64"/>
      <point x="86.392" y="651.64" type="curve" smooth="yes"/>
      <point x="96.69800000000001" y="651.64"/>
      <point x="104.266" y="658.06"/>
      <point x="107.5" y="673.97" type="curve"/>
      <point x="103.49600000000001" y="670.06"/>
      <point x="98.932" y="665.01"/>
      <point x="98.308" y="664.29" type="curve"/>
      <point x="98.07600000000001" y="627.27"/>
      <point x="70.41828006329757" y="577.9449616357801"/>
      <point x="30.108" y="544.74" type="curve"/>
    </contour>
  </outline>
</glyph>
<glyph name="bullet" format="2">
  <advance width="297.756"/>
  <unicode hex="2022"/>
  <outline>
    <contour>
      <point x="60.076" y="337.0" type="curve" smooth="yes"/>
      <point x="60.076" y="278.19"/>
      <point x="96.626" y="238.03"/>
      <point x="148.878" y="238.03" type="curve" smooth="yes"/>
      <point x="200.752" y="238.03"/>
      <point x="237.68" y="278.19"/>
      <point x="237.68" y="337.0" type="curve" smooth="yes"/>
      <point x="237.68" y="395.81"/>
      <point x="200.752" y="435.97"/>
      <point x="148.878" y="435.97" type="curve" smooth="yes"/>
      <point x="96.626" y="435.97"/>
      <point x="60.076" y="395.81"/>
    </contour>
  </outline>
</glyph>
<glyph name="uni20B4" format="2">
  <advance width="452.2"/>
  <unicode hex="20B4"/>
  <outline>
    <contour>
      <point x="15.526" y="455.23" type="line"/>
      <point x="15.526" y="427.05" type="line"/>
      <point x="436.674" y="427.05" type="line"/>
      <point x="436.674" y="455.23" type="line"/>
    </contour>
    <contour>
      <point x="15.526" y="316.0" type="line"/>
      <point x="15.526" y="287.82" type="line"/>
      <point x="436.674" y="287.82" type="line"/>
      <point x="436.674" y="316.0" type="line"/>
    </contour>
    <contour>
      <point x="235.09" y="720.0" type="curve" smooth="yes"/>
      <point x="161.444" y="720.0"/>
      <point x="106.7" y="682.07"/>
      <point x="81.80799999999999" y="652.79" type="curve"/>
      <point x="81.80799999999999" y="569.82" type="line"/>
      <point x="127.786" y="569.82" type="line"/>
      <point x="127.786" y="670.82" type="line"/>
      <point x="114.128" y="666.61"/>
      <point x="98.252" y="643.89"/>
      <point x="103.152" y="623.1" type="curve"/>
      <point x="127.492" y="659.89"/>
      <point x="171.042" y="692.03"/>
      <point x="234.234" y="692.03" type="curve" smooth="yes"/>
      <point x="307.509749999874" y="692.03"/>
      <point x="345.366" y="646.75"/>
      <point x="345.366" y="566.86" type="curve" smooth="yes"/>
      <point x="345.366" y="511.44"/>
      <point x="327.142" y="471.86"/>
      <point x="297.448" y="445.49" type="curve"/>
      <point x="348.894" y="446.54" type="line"/>
      <point x="369.35" y="475.4"/>
      <point x="383.38599999999997" y="515.7"/>
      <point x="383.38599999999997" y="562.86" type="curve" smooth="yes"/>
      <point x="383.38599999999997" y="660.0"/>
      <point x="328.3315" y="720.0"/>
    </contour>
    <contour>
      <point x="228.11599999999999" y="-10.0" type="curve" smooth="yes"/>
      <point x="313.158" y="-10.0"/>
      <point x="375.02" y="39.07"/>
      <point x="405.39" y="81.19" type="curve"/>
      <point x="405.39" y="164.18" type="line"/>
      <point x="360.716" y="164.18" type="line"/>
      <point x="360.716" y="71.7" type="line"/>
      <point x="376.272" y="78.05"/>
      <point x="388.642" y="96.95"/>
      <point x="383.062" y="114.51" type="curve"/>
      <point x="353.948" y="61.95"/>
      <point x="300.18" y="17.9"/>
      <point x="228.972" y="17.9" type="curve" smooth="yes"/>
      <point x="150.286" y="17.9"/>
      <point x="96.3" y="73.51"/>
      <point x="96.3" y="167.56" type="curve" smooth="yes"/>
      <point x="96.3" y="221.84"/>
      <point x="112.54" y="263.0"/>
      <point x="142.972" y="290.65" type="curve"/>
      <point x="91.78399999999999" y="291.0" type="line"/>
      <point x="69.444" y="259.44"/>
      <point x="57.656" y="222.07"/>
      <point x="57.656" y="173.14" type="curve" smooth="yes"/>
      <point x="57.656" y="55.14"/>
      <point x="129.59199999999998" y="-10.0"/>
    </contour>
  </outline>
</glyph>
<glyph name="uni20B8" format="2">
  <advance width="452.2"/>
  <unicode hex="20B8"/>
  <outline>
    <contour>
      <point x="206.582" y="64.81" type="line" smooth="yes"/>
      <point x="206.582" y="35.81"/>
      <point x="177.732" y="28.81"/>
      <point x="138.082" y="28.81" type="curve" smooth="yes"/>
      <point x="124.832" y="28.81" type="line"/>
      <point x="124.832" y="0.0" type="line"/>
      <point x="327.44" y="0.0" type="line"/>
      <point x="327.44" y="28.81" type="line"/>
      <point x="314.278" y="28.81" type="line" smooth="yes"/>
      <point x="274.628" y="28.81"/>
      <point x="245.77800000000002" y="35.81"/>
      <point x="245.77800000000002" y="64.81" type="curve" smooth="yes"/>
      <point x="245.77800000000002" y="536.82" type="line"/>
      <point x="287.57" y="536.82" type="line" smooth="yes"/>
      <point x="355.73400000000004" y="536.82"/>
      <point x="385.134" y="529.82"/>
      <point x="387.496" y="493.82" type="curve" smooth="yes"/>
      <point x="394.384" y="395.82" type="line"/>
      <point x="419.35400000000004" y="395.82" type="line"/>
      <point x="419.35400000000004" y="565.14" type="line"/>
      <point x="32.846" y="565.14" type="line"/>
      <point x="32.846" y="395.82" type="line"/>
      <point x="57.816" y="395.82" type="line"/>
      <point x="64.704" y="493.82" type="line" smooth="yes"/>
      <point x="67.066" y="529.82"/>
      <point x="96.46600000000001" y="536.82"/>
      <point x="164.63" y="536.82" type="curve" smooth="yes"/>
      <point x="206.582" y="536.82" type="line"/>
    </contour>
    <contour>
      <point x="32.846" y="710.0" type="line"/>
      <point x="32.846" y="681.54" type="line"/>
      <point x="419.35400000000004" y="681.54" type="line"/>
      <point x="419.35400000000004" y="710.0" type="line"/>
    </contour>
  </outline>
</glyph>
<glyph name="radical" format="2">
  <advance width="477.01"/>
  <unicode hex="221A"/>
  <outline>
    <contour>
      <point x="46.51" y="329.82" type="line"/>
      <point x="146.562" y="329.82" type="line"/>
      <point x="117.244" y="349.33" type="line"/>
      <point x="225.75" y="0.0" type="line"/>
      <point x="254.592" y="0.0" type="line"/>
      <point x="258.332" y="26.23" type="line"/>
      <point x="154.94400000000002" y="357.16" type="line"/>
      <point x="46.51" y="357.16" type="line"/>
    </contour>
    <contour>
      <point x="421.524" y="710.0" type="line"/>
      <point x="235.034" y="0.0" type="line"/>
      <point x="265.816" y="0.0" type="line"/>
      <point x="453.846" y="710.0" type="line"/>
    </contour>
  </outline>
</glyph>
<glyph name="Pcircle" format="2">
  <advance width="678.46"/>
  <unicode hex="24C5"/>
  <outline>
    <contour>
      <point x="64.054" y="355.0" type="curve" smooth="yes"/>
      <point x="64.054" y="555.98"/>
      <point x="179.45" y="709.4"/>
      <point x="339.15" y="709.4" type="curve" smooth="yes"/>
      <point x="498.85" y="709.4"/>
      <point x="614.406" y="555.98"/>
      <point x="614.406" y="355.0" type="curve" smooth="yes"/>
      <point x="614.406" y="154.02"/>
      <point x="498.85" y="0.5999999999999999"/>
      <point x="339.15" y="0.5999999999999999" type="curve" smooth="yes"/>
      <point x="179.45" y="0.5999999999999999"/>
      <point x="64.054" y="154.02"/>
    </contour>
    <contour>
      <point x="32.3" y="355.0" type="curve" smooth="yes"/>
      <point x="32.3" y="138.0"/>
      <point x="165.4" y="-28.0"/>
      <point x="339.15" y="-28.0" type="curve" smooth="yes"/>
      <point x="512.972" y="-28.0"/>
      <point x="646.16" y="138.0"/>
      <point x="646.16" y="355.0" type="curve" smooth="yes"/>
      <point x="646.16" y="572.0"/>
      <point x="512.972" y="738.0"/>
      <point x="339.15" y="738.0" type="curve" smooth="yes"/>
      <point x="165.4" y="738.0"/>
      <point x="32.3" y="572.0"/>
    </contour>
    <contour>
      <point x="219.834" y="153.0" type="line"/>
      <point x="356.316" y="153.0" type="line"/>
      <point x="356.316" y="178.95" type="line"/>
      <point x="336.89" y="178.95" type="line" smooth="yes"/>
      <point x="321.278" y="178.95"/>
      <point x="301.228" y="179.95"/>
      <point x="301.228" y="183.95" type="curve" smooth="yes"/>
      <point x="301.228" y="310.7" type="line"/>
      <point x="362.49" y="310.7" type="line" smooth="yes"/>
      <point x="434.93600000000004" y="310.7"/>
      <point x="486.084" y="359.56"/>
      <point x="486.084" y="437.35" type="curve" smooth="yes"/>
      <point x="486.084" y="513.14"/>
      <point x="438.836" y="557.0"/>
      <point x="364.94" y="557.0" type="curve" smooth="yes"/>
      <point x="219.834" y="557.0" type="line"/>
      <point x="219.834" y="531.05" type="line"/>
      <point x="224.734" y="531.05" type="line" smooth="yes"/>
      <point x="247.696" y="531.05"/>
      <point x="264.384" y="527.05"/>
      <point x="264.384" y="511.05" type="curve" smooth="yes"/>
      <point x="264.384" y="198.95" type="line" smooth="yes"/>
      <point x="264.384" y="182.95"/>
      <point x="247.696" y="178.95"/>
      <point x="224.734" y="178.95" type="curve" smooth="yes"/>
      <point x="219.834" y="178.95" type="line"/>
    </contour>
    <contour>
      <point x="364.78000000000003" y="528.05" type="line" smooth="yes"/>
      <point x="419.87" y="528.05"/>
      <point x="446.878" y="501.8354999999955"/>
      <point x="446.878" y="437.35" type="curve" smooth="yes"/>
      <point x="446.878" y="372.9181363636245"/>
      <point x="419.87" y="339.65"/>
      <point x="362.418" y="339.65" type="curve" smooth="yes"/>
      <point x="301.228" y="339.65" type="line"/>
      <point x="301.228" y="528.05" type="line"/>
    </contour>
  </outline>
</glyph>
<glyph name="uni25B5" format="2">
  <advance width="673.4"/>
  <unicode hex="25B5"/>
  <outline>
    <contour>
      <point x="16.15" y="0.0" type="line"/>
      <point x="657.25" y="0.0" type="line"/>
      <point x="336.7" y="715.0" type="line"/>
    </contour>
    <contour>
      <point x="92.0" y="63.0" type="line"/>
      <point x="98.35" y="44.0" type="line"/>
      <point x="341.6" y="592.0" type="line"/>
      <point x="331.8" y="592.0" type="line"/>
      <point x="575.05" y="44.0" type="line"/>
      <point x="581.4" y="63.0" type="line"/>
    </contour>
  </outline>
</glyph>
<glyph name="f_f_l" format="2">
  <advance width="775.428"/>
  <unicode hex="FB04"/>
  <outline>
    <contour>
      <point x="28.792" y="508.0" type="line"/>
      <point x="28.792" y="483.1" type="line"/>
      <point x="349.116" y="483.1" type="line"/>
      <point x="349.116" y="508.0" type="line"/>
    </contour>
    <contour>
      <point x="293.878" y="508.0" type="line"/>
      <point x="293.878" y="483.1" type="line"/>
      <point x="544.09" y="483.1" type="line"/>
      <point x="544.09" y="508.0" type="line"/>
    </contour>
    <contour>
      <point x="235.44" y="0.0" type="line"/>
      <point x="235.44" y="25.74" type="line"/>
      <point x="225.976" y="25.74" type="line" smooth="yes"/>
      <point x="183.442" y="25.74"/>
      <point x="151.086" y="28.74"/>
      <point x="151.086" y="35.74" type="curve" smooth="yes"/>
      <point x="151.086" y="578.4" type="line" smooth="yes"/>
      <point x="151.086" y="677.19"/>
      <point x="182.168" y="711.96"/>
      <point x="231.892" y="711.96" type="curve" smooth="yes"/>
      <point x="257.45" y="711.96"/>
      <point x="278.5" y="702.96"/>
      <point x="295.028" y="694.96" type="curve"/>
      <point x="295.028" y="726.93" type="line"/>
      <point x="280.95" y="732.93"/>
      <point x="257.29" y="736.93"/>
      <point x="233.27" y="736.93" type="curve" smooth="yes"/>
      <point x="165.04399999999998" y="736.93"/>
      <point x="112.44200000000001" y="689.58"/>
      <point x="112.44200000000001" y="578.4" type="curve" smooth="yes"/>
      <point x="112.44200000000001" y="61.74" type="line" smooth="yes"/>
      <point x="112.44200000000001" y="32.74"/>
      <point x="86.042" y="25.74"/>
      <point x="41.492" y="25.74" type="curve" smooth="yes"/>
      <point x="32.692" y="25.74" type="line"/>
      <point x="32.692" y="0.0" type="line"/>
    </contour>
    <contour>
      <point x="502.486" y="0.0" type="line"/>
      <point x="502.486" y="25.74" type="line"/>
      <point x="492.148" y="25.74" type="line" smooth="yes"/>
      <point x="449.382" y="25.74"/>
      <point x="416.634" y="28.74"/>
      <point x="416.634" y="35.74" type="curve" smooth="yes"/>
      <point x="416.634" y="597.75" type="line" smooth="yes"/>
      <point x="416.634" y="696.54"/>
      <point x="455.284" y="723.82"/>
      <point x="529.304" y="723.82" type="curve" smooth="yes"/>
      <point x="578.0" y="723.82"/>
      <point x="623.8240000000001" y="708.96"/>
      <point x="661.01" y="676.5" type="curve"/>
      <point x="666.358" y="711.84" type="line"/>
      <point x="636.508" y="726.72"/>
      <point x="591.958" y="752.0"/>
      <point x="529.5360000000001" y="752.0" type="curve" smooth="yes"/>
      <point x="438.48" y="752.0"/>
      <point x="377.99" y="708.93"/>
      <point x="377.99" y="597.75" type="curve"/>
      <point x="377.99" y="35.74" type="line" smooth="yes"/>
      <point x="377.99" y="28.74"/>
      <point x="345.634" y="25.74"/>
      <point x="302.31600000000003" y="25.74" type="curve" smooth="yes"/>
      <point x="298.24" y="25.74" type="line"/>
      <point x="298.24" y="0.0" type="line"/>
    </contour>
    <contour>
      <point x="749.77" y="0.0" type="line"/>
      <point x="749.77" y="25.74" type="line"/>
      <point x="748.32" y="25.74" type="line" smooth="yes"/>
      <point x="709.582" y="25.74"/>
      <point x="681.72" y="32.74"/>
      <point x="681.72" y="61.74" type="curve" smooth="yes"/>
      <point x="681.72" y="735.0" type="line"/>
      <point x="598.742" y="735.0" type="line"/>
      <point x="643.076" y="703.49" type="line"/>
      <point x="643.076" y="35.74" type="line" smooth="yes"/>
      <point x="643.076" y="28.74"/>
      <point x="606.876" y="25.74"/>
      <point x="584.376" y="25.74" type="curve" smooth="yes"/>
      <point x="575.576" y="25.74" type="line"/>
      <point x="575.576" y="0.0" type="line"/>
    </contour>
  </outline>
</glyph>
<glyph name="E.alt" format="2">
  <advance width="486.842"/>
  <outline>
    <contour>
      <point x="442.21799999999996" y="185.97" type="line"/>
      <point x="416.336" y="185.97" type="line"/>
      <point x="408.986" y="70.97" type="line" smooth="yes"/>
      <point x="406.536" y="34.97"/>
      <point x="377.598" y="27.97"/>
      <point x="308.098" y="27.97" type="curve" smooth="yes"/>
      <point x="152.998" y="27.97" type="line"/>
      <point x="152.998" y="682.03" type="line"/>
      <point x="284.686" y="682.03" type="line" smooth="yes"/>
      <point x="354.18600000000004" y="682.03"/>
      <point x="382.498" y="675.03"/>
      <point x="385.486" y="639.03" type="curve" smooth="yes"/>
      <point x="392.836" y="549.03" type="line"/>
      <point x="417.71799999999996" y="549.03" type="line"/>
      <point x="417.71799999999996" y="710.0" type="line"/>
      <point x="36.2" y="710.0" type="line"/>
      <point x="36.2" y="681.19" type="line"/>
      <point x="45.0" y="681.19" type="line" smooth="yes"/>
      <point x="84.65" y="681.19"/>
      <point x="114.05" y="674.19"/>
      <point x="114.05" y="645.19" type="curve" smooth="yes"/>
      <point x="114.05" y="64.81" type="line" smooth="yes"/>
      <point x="114.05" y="35.81"/>
      <point x="84.65" y="28.81"/>
      <point x="45.0" y="28.81" type="curve" smooth="yes"/>
      <point x="36.2" y="28.81" type="line"/>
      <point x="36.2" y="0.0" type="line"/>
      <point x="442.21799999999996" y="0.0" type="line"/>
    </contour>
    <contour>
      <point x="135.6" y="349.98" type="line"/>
      <point x="306.892" y="349.98" type="line" smooth="yes"/>
      <point x="331.61" y="349.98"/>
      <point x="339.872" y="321.12"/>
      <point x="339.872" y="287.12" type="curve" smooth="yes"/>
      <point x="339.872" y="278.98" type="line"/>
      <point x="363.434" y="278.98" type="line"/>
      <point x="363.434" y="450.16" type="line"/>
      <point x="339.872" y="450.16" type="line"/>
      <point x="339.872" y="442.02" type="line" smooth="yes"/>
      <point x="339.872" y="407.02"/>
      <point x="331.61" y="378.16"/>
      <point x="306.892" y="378.16" type="curve" smooth="yes"/>
      <point x="135.6" y="378.16" type="line"/>
    </contour>
  </outline>
</glyph>
<glyph name="acute.uc" format="2">
  <advance width="403.75"/>
  <anchor x="163.502" y="727.0" name="_top"/>
  <outline>
    <contour>
      <point x="210.10399999999998" y="867.51" type="curve" smooth="yes"/>
      <point x="143.508" y="779.44" type="line"/>
      <point x="143.508" y="766.0" type="line"/>
      <point x="156.558" y="766.0" type="line"/>
      <point x="239.072" y="839.96" type="line" smooth="yes"/>
      <point x="262.516" y="858.96"/>
      <point x="275.782" y="869.26"/>
      <point x="275.782" y="884.63" type="curve" smooth="yes"/>
      <point x="275.782" y="897.07"/>
      <point x="267.416" y="905.3"/>
      <point x="253.918" y="905.3" type="curve" smooth="yes"/>
      <point x="237.89600000000002" y="905.3"/>
      <point x="228.24" y="891.37"/>
    </contour>
  </outline>
</glyph>
<glyph name="bar.uc" format="2">
  <advance width="226.1"/>
  <outline>
    <contour>
      <point x="97.766" y="744.65" type="line"/>
      <point x="97.766" y="-34.65" type="line"/>
      <point x="128.334" y="-34.65" type="line"/>
      <point x="128.334" y="744.65" type="line"/>
    </contour>
  </outline>
</glyph>
<glyph name="blackdownpointingtriangle" format="2">
  <advance width="673.4"/>
  <outline>
    <contour>
      <point x="16.15" y="715.0" type="line"/>
      <point x="336.7" y="0.0" type="line"/>
      <point x="657.25" y="715.0" type="line"/>
    </contour>
  </outline>
</glyph>
<glyph name="blacktriangle" format="2">
  <advance width="462.45"/>
  <outline>
    <contour>
      <point x="104.7" y="40.0" type="line"/>
      <point x="406.2" y="307.0" type="line"/>
      <point x="104.7" y="575.0" type="line"/>
    </contour>
  </outline>
</glyph>
<glyph name="cedi.proportional" format="2">
  <advance width="536.956"/>
  <outline>
    <contour>
      <point x="294.636" y="700.0" type="curve" smooth="yes"/>
      <point x="145.526" y="700.0"/>
      <point x="39.216" y="569.84"/>
      <point x="39.216" y="355.0" type="curve" smooth="yes"/>
      <point x="39.216" y="150.0"/>
      <point x="144.092" y="10.0"/>
      <point x="290.546" y="10.0" type="curve" smooth="yes"/>
      <point x="404.9" y="10.0"/>
      <point x="475.736" y="95.58"/>
      <point x="502.136" y="218.3" type="curve"/>
      <point x="474.034" y="233.32" type="line"/>
      <point x="451.91200000000003" y="125.39"/>
      <point x="393.748" y="37.76"/>
      <point x="291.33" y="37.76" type="curve" smooth="yes"/>
      <point x="164.176" y="37.76"/>
      <point x="80.544" y="163.67"/>
      <point x="80.544" y="355.0" type="curve" smooth="yes"/>
      <point x="80.544" y="558.96"/>
      <point x="167.886" y="671.89"/>
      <point x="294.636" y="671.89" type="curve" smooth="yes"/>
      <point x="379.124" y="671.89"/>
      <point x="431.908" y="633.45"/>
      <point x="460.67" y="581.17" type="curve"/>
      <point x="470.976" y="564.09"/>
      <point x="467.608" y="601.44"/>
      <point x="437.876" y="621.35" type="curve"/>
      <point x="437.876" y="515.68" type="line"/>
      <point x="484.088" y="515.68" type="line"/>
      <point x="484.088" y="610.58" type="line"/>
      <point x="454.47" y="655.42"/>
      <point x="388.492" y="700.0"/>
    </contour>
    <contour>
      <point x="274.116" y="790.0" type="line"/>
      <point x="274.116" y="691.47" type="line"/>
      <point x="274.116" y="684.75" type="line"/>
      <point x="274.116" y="30.37" type="line"/>
      <point x="274.116" y="25.51" type="line"/>
      <point x="274.116" y="-120.0" type="line"/>
      <point x="306.102" y="-120.0" type="line"/>
      <point x="306.102" y="25.37" type="line"/>
      <point x="306.102" y="27.88" type="line"/>
      <point x="306.102" y="685.33" type="line"/>
      <point x="306.102" y="689.19" type="line"/>
      <point x="306.102" y="790.0" type="line"/>
    </contour>
  </outline>
</glyph>
<glyph name="cent.proportional" format="2">
  <advance width="452.2"/>
  <outline>
    <contour>
      <point x="223.026" y="623.0" type="line"/>
      <point x="223.026" y="507.4" type="line"/>
      <point x="223.026" y="499.68" type="line"/>
      <point x="223.026" y="5.67" type="line"/>
      <point x="223.026" y="0.43999999999999995" type="line"/>
      <point x="223.026" y="-126.0" type="line"/>
      <point x="255.012" y="-126.0" type="line"/>
      <point x="255.012" y="-3.4000000000000004" type="line"/>
      <point x="255.012" y="5.32" type="line"/>
      <point x="255.012" y="497.4" type="line"/>
      <point x="255.012" y="503.56" type="line"/>
      <point x="255.012" y="623.0" type="line"/>
    </contour>
    <contour>
      <point x="242.44" y="16.04" type="curve" smooth="yes"/>
      <point x="149.558" y="16.04"/>
      <point x="86.64" y="103.46"/>
      <point x="86.64" y="253.42" type="curve" smooth="yes"/>
      <point x="86.64" y="393.19"/>
      <point x="143.426" y="489.96"/>
      <point x="248.6" y="489.96" type="curve" smooth="yes"/>
      <point x="309.532" y="489.96"/>
      <point x="356.372" y="459.66"/>
      <point x="375.51" y="428.8" type="curve"/>
      <point x="383.54" y="449.73"/>
      <point x="376.17400000000004" y="451.7"/>
      <point x="356.182" y="463.61" type="curve"/>
      <point x="356.182" y="369.66" type="line"/>
      <point x="399.536" y="369.66" type="line"/>
      <point x="399.536" y="457.7" type="line"/>
      <point x="382.224" y="478.56"/>
      <point x="331.134" y="518.0"/>
      <point x="248.6" y="518.0" type="curve" smooth="yes"/>
      <point x="122.066" y="518.0"/>
      <point x="45.634" y="406.14"/>
      <point x="45.634" y="253.42" type="curve" smooth="yes"/>
      <point x="45.634" y="90.65"/>
      <point x="129.866" y="-12.0"/>
      <point x="242.048" y="-12.0" type="curve" smooth="yes"/>
      <point x="330.148" y="-12.0"/>
      <point x="378.31" y="52.63"/>
      <point x="405.726" y="124.98" type="curve"/>
      <point x="383.7" y="146.79" type="line"/>
      <point x="363.084" y="85.81"/>
      <point x="322.014" y="16.04"/>
    </contour>
  </outline>
</glyph>
<glyph name="colonsign.proportional" format="2">
  <advance width="554.212"/>
  <outline>
    <contour>
      <point x="145.54" y="-120.0" type="line"/>
      <point x="177.526" y="-120.0" type="line"/>
      <point x="197.126" y="52.79" type="line"/>
      <point x="197.736" y="59.3" type="line"/>
      <point x="266.074" y="676.98" type="line"/>
      <point x="267.524" y="687.77" type="line"/>
      <point x="278.934" y="790.0" type="line"/>
      <point x="246.948" y="790.0" type="line"/>
      <point x="234.466" y="681.26" type="line"/>
      <point x="233.016" y="668.4" type="line"/>
      <point x="168.36" y="77.6" type="line"/>
      <point x="166.822" y="64.67" type="line"/>
    </contour>
    <contour>
      <point x="282.74" y="-120.0" type="line"/>
      <point x="314.726" y="-120.0" type="line"/>
      <point x="331.036" y="18.95" type="line"/>
      <point x="331.948" y="27.95" type="line"/>
      <point x="402.274" y="668.7" type="line"/>
      <point x="402.812" y="674.56" type="line"/>
      <point x="416.134" y="790.0" type="line"/>
      <point x="383.68600000000004" y="790.0" type="line"/>
      <point x="371.898" y="683.14" type="line"/>
      <point x="370.898" y="673.14" type="line"/>
      <point x="299.65999999999997" y="26.46" type="line"/>
      <point x="299.122" y="19.53" type="line"/>
    </contour>
    <contour>
      <point x="312.956" y="671.89" type="curve" smooth="yes"/>
      <point x="414.014" y="671.89"/>
      <point x="470.934" y="629.38"/>
      <point x="498.39" y="598.01" type="curve"/>
      <point x="494.378" y="621.08"/>
      <point x="490.472" y="631.68"/>
      <point x="471.8" y="631.75" type="curve"/>
      <point x="471.8" y="534.08" type="line"/>
      <point x="516.082" y="534.08" type="line"/>
      <point x="516.082" y="629.12" type="line"/>
      <point x="493.19" y="650.84"/>
      <point x="429.632" y="700.0"/>
      <point x="312.956" y="700.0" type="curve" smooth="yes"/>
      <point x="155.6" y="700.0"/>
      <point x="42.332" y="556.9913698630055"/>
      <point x="42.332" y="355.0" type="curve" smooth="yes"/>
      <point x="42.332" y="150.0034520547915"/>
      <point x="150.978" y="10.0"/>
      <point x="302.636" y="10.0" type="curve" smooth="yes"/>
      <point x="422.588" y="10.0"/>
      <point x="496.25" y="95.3"/>
      <point x="523.2" y="217.39" type="curve"/>
      <point x="494.868" y="232.41" type="line"/>
      <point x="473.048" y="125.25"/>
      <point x="412.348" y="38.04"/>
      <point x="303.42" y="38.04" type="curve" smooth="yes"/>
      <point x="170.974" y="38.04"/>
      <point x="84.21000000000001" y="164.099245733777"/>
      <point x="84.21000000000001" y="355.0" type="curve" smooth="yes"/>
      <point x="84.21000000000001" y="546.121268456364"/>
      <point x="177.96" y="671.89"/>
    </contour>
  </outline>
</glyph>
<glyph name="dollar.altprop" format="2">
  <advance width="455.408"/>
  <outline>
    <contour>
      <point x="240.248" y="35.62" type="curve" smooth="yes"/>
      <point x="163.49300523560208" y="35.62"/>
      <point x="96.642" y="66.69"/>
      <point x="65.414" y="119.41" type="curve"/>
      <point x="59.602000000000004" y="108.76"/>
      <point x="70.578" y="90.3"/>
      <point x="85.078" y="84.37" type="curve"/>
      <point x="85.078" y="176.13" type="line"/>
      <point x="40.316" y="176.13" type="line"/>
      <point x="40.316" y="93.93" type="line"/>
      <point x="75.17" y="51.0"/>
      <point x="148.613504" y="7.72"/>
      <point x="240.8" y="7.72" type="curve" smooth="yes"/>
      <point x="342.776" y="7.72"/>
      <point x="422.918" y="71.16"/>
      <point x="422.918" y="194.09" type="curve" smooth="yes"/>
      <point x="422.918" y="317.95"/>
      <point x="334.354" y="353.32"/>
      <point x="259.618" y="377.11" type="curve" smooth="yes"/>
      <point x="181.47688072310697" y="403.3077924973678"/>
      <point x="103.78999999999999" y="426.32"/>
      <point x="103.78999999999999" y="533.07" type="curve" smooth="yes"/>
      <point x="103.78999999999999" y="620.47"/>
      <point x="158.008" y="670.1"/>
      <point x="241.57" y="670.1" type="curve" smooth="yes"/>
      <point x="315.81" y="670.1"/>
      <point x="360.794" y="641.8"/>
      <point x="380.858" y="611.08" type="curve"/>
      <point x="389.034" y="625.73"/>
      <point x="375.462" y="637.19"/>
      <point x="358.994" y="640.26" type="curve"/>
      <point x="358.994" y="555.31" type="line"/>
      <point x="404.724" y="555.31" type="line"/>
      <point x="404.724" y="636.35" type="line"/>
      <point x="383.58799999999997" y="660.14"/>
      <point x="325.01599999999996" y="698.0"/>
      <point x="242.034" y="698.0" type="curve" smooth="yes"/>
      <point x="136.824" y="698.0"/>
      <point x="64.41" y="632.0"/>
      <point x="64.41" y="530.49" type="curve" smooth="yes"/>
      <point x="64.41" y="408.91"/>
      <point x="149.65772429722264" y="375.03784147052556"/>
      <point x="221.88" y="351.33" type="curve" smooth="yes"/>
      <point x="301.6" y="324.26"/>
      <point x="383.376" y="306.33"/>
      <point x="383.376" y="187.65" type="curve" smooth="yes"/>
      <point x="383.376" y="82.18"/>
      <point x="322.97" y="35.62"/>
    </contour>
    <contour>
      <point x="252.458" y="684.84" type="line"/>
      <point x="252.458" y="786.79" type="line"/>
      <point x="220.472" y="786.79" type="line"/>
      <point x="220.472" y="684.84" type="line"/>
    </contour>
    <contour>
      <point x="220.472" y="16.74" type="line"/>
      <point x="220.472" y="-120.0" type="line"/>
      <point x="252.458" y="-120.0" type="line"/>
      <point x="252.458" y="16.74" type="line"/>
    </contour>
  </outline>
</glyph>
<glyph name="dollar.proportional" format="2">
  <advance width="489.932"/>
  <outline>
    <contour>
      <point x="233.518" y="786.79" type="line"/>
      <point x="233.518" y="689.4" type="line"/>
      <point x="233.518" y="681.61" type="line"/>
      <point x="233.518" y="24.6" type="line"/>
      <point x="233.518" y="19.81" type="line"/>
      <point x="233.518" y="-120.0" type="line"/>
      <point x="265.966" y="-120.0" type="line"/>
      <point x="265.966" y="16.74" type="line"/>
      <point x="265.966" y="23.32" type="line"/>
      <point x="265.966" y="678.05" type="line"/>
      <point x="265.966" y="686.05" type="line"/>
      <point x="265.966" y="786.79" type="line"/>
    </contour>
    <contour>
      <point x="253.20600000000002" y="35.83" type="curve" smooth="yes"/>
      <point x="177.154" y="35.83"/>
      <point x="101.75800000000001" y="74.53"/>
      <point x="68.242" y="130.32" type="curve"/>
      <point x="65.848" y="111.18"/>
      <point x="76.752" y="104.35"/>
      <point x="91.25200000000001" y="87.58" type="curve"/>
      <point x="91.25200000000001" y="184.83" type="line"/>
      <point x="46.49" y="184.83" type="line"/>
      <point x="46.49" y="96.86" type="line"/>
      <point x="82.312" y="56.35"/>
      <point x="162.206" y="7.72"/>
      <point x="253.758" y="7.72" type="curve" smooth="yes"/>
      <point x="360.01" y="7.72"/>
      <point x="442.818" y="71.65"/>
      <point x="442.818" y="194.09" type="curve" smooth="yes"/>
      <point x="442.818" y="316.09"/>
      <point x="350.60200000000003" y="351.46"/>
      <point x="273.198" y="376.32" type="curve" smooth="yes"/>
      <point x="188.668" y="403.6"/>
      <point x="105.616" y="425.81"/>
      <point x="105.616" y="532.14" type="curve" smooth="yes"/>
      <point x="105.616" y="620.12"/>
      <point x="160.892" y="669.82"/>
      <point x="253.268" y="669.82" type="curve" smooth="yes"/>
      <point x="324.722" y="669.82"/>
      <point x="375.432" y="642.59"/>
      <point x="400.83" y="604.1" type="curve"/>
      <point x="403.672" y="625.52"/>
      <point x="389.406" y="646.68"/>
      <point x="378.734" y="654.03" type="curve"/>
      <point x="378.734" y="553.03" type="line"/>
      <point x="424.464" y="553.03" type="line"/>
      <point x="424.464" y="631.21" type="line"/>
      <point x="397.994" y="662.49"/>
      <point x="333.698" y="698.0"/>
      <point x="252.484" y="698.0" type="curve" smooth="yes"/>
      <point x="141.1" y="698.0"/>
      <point x="70.976" y="633.93"/>
      <point x="70.976" y="529.49" type="curve" smooth="yes"/>
      <point x="70.976" y="409.12"/>
      <point x="159.582" y="376.98"/>
      <point x="234.998" y="352.12" type="curve" smooth="yes"/>
      <point x="320.834" y="323.84"/>
      <point x="407.928" y="304.98"/>
      <point x="407.928" y="187.72" type="curve" smooth="yes"/>
      <point x="407.928" y="82.81"/>
      <point x="343.028" y="35.83"/>
    </contour>
  </outline>
</glyph>
<glyph name="dotaccentcomb" format="2">
  <anchor x="-39.704" y="526.0" name="_top"/>
  <outline>
    <contour>
      <point x="-229.62800000000001" y="659.66" type="curve" smooth="yes"/>
      <point x="-209.46" y="659.66"/>
      <point x="-194.584" y="673.03"/>
      <point x="-194.584" y="698.19" type="curve" smooth="yes"/>
      <point x="-194.584" y="723.42"/>
      <point x="-209.46" y="736.79"/>
      <point x="-229.62800000000001" y="736.79" type="curve" smooth="yes"/>
      <point x="-249.708" y="736.79"/>
      <point x="-264.584" y="723.42"/>
      <point x="-264.584" y="698.19" type="curve" smooth="yes"/>
      <point x="-264.584" y="673.03"/>
      <point x="-249.708" y="659.66"/>
    </contour>
  </outline>
</glyph>
<glyph name="eight.den" format="2">
  <advance width="260.544"/>
  <outline>
    <contour>
      <point x="130.272" y="185.79" type="curve" smooth="yes"/>
      <point x="72.832" y="185.79"/>
      <point x="29.876" y="151.86"/>
      <point x="29.876" y="96.14" type="curve" smooth="yes"/>
      <point x="29.876" y="34.93"/>
      <point x="70.92" y="-6.0"/>
      <point x="130.272" y="-6.0" type="curve" smooth="yes"/>
      <point x="189.25" y="-6.0"/>
      <point x="230.294" y="34.93"/>
      <point x="230.294" y="96.14" type="curve" smooth="yes"/>
      <point x="230.294" y="151.86"/>
      <point x="187.64" y="185.79"/>
    </contour>
    <contour>
      <point x="130.272" y="168.49" type="curve" smooth="yes"/>
      <point x="165.86375" y="168.49"/>
      <point x="190.174" y="143.28"/>
      <point x="190.174" y="95.93" type="curve" smooth="yes"/>
      <point x="190.174" y="49.44"/>
      <point x="164.64575" y="21.09"/>
      <point x="130.272" y="21.09" type="curve" smooth="yes"/>
      <point x="95.89825" y="21.09"/>
      <point x="69.908" y="49.44"/>
      <point x="69.908" y="95.93" type="curve" smooth="yes"/>
      <point x="69.908" y="143.28"/>
      <point x="94.056" y="168.49"/>
    </contour>
    <contour>
      <point x="130.272" y="346.0" type="curve" smooth="yes"/>
      <point x="79.342" y="346.0"/>
      <point x="42.59" y="310.0"/>
      <point x="42.59" y="262.28" type="curve" smooth="yes"/>
      <point x="42.59" y="210.28"/>
      <point x="79.342" y="178.21"/>
      <point x="130.272" y="178.21" type="curve" smooth="yes"/>
      <point x="180.668" y="178.21"/>
      <point x="218.042" y="210.28"/>
      <point x="218.042" y="262.28" type="curve" smooth="yes"/>
      <point x="218.042" y="310.0"/>
      <point x="180.668" y="346.0"/>
    </contour>
    <contour>
      <point x="130.272" y="192.51" type="curve" smooth="yes"/>
      <point x="100.955647058808" y="192.51"/>
      <point x="80.708" y="216.93"/>
      <point x="80.708" y="257.35" type="curve" smooth="yes"/>
      <point x="80.708" y="296.63"/>
      <point x="100.955647058808" y="319.91"/>
      <point x="130.272" y="319.91" type="curve" smooth="yes"/>
      <point x="159.5135294118" y="319.91"/>
      <point x="179.924" y="296.63"/>
      <point x="179.924" y="257.35" type="curve" smooth="yes"/>
      <point x="179.924" y="216.93"/>
      <point x="159.5135294118" y="192.51"/>
    </contour>
  </outline>
</glyph>
<glyph name="f.alt" format="2">
  <advance width="300.242"/>
  <outline>
    <contour>
      <point x="28.792" y="508.0" type="line"/>
      <point x="28.792" y="483.1" type="line"/>
      <point x="279.326" y="483.1" type="line"/>
      <point x="279.326" y="508.0" type="line"/>
    </contour>
    <contour>
      <point x="238.648" y="0.0" type="line"/>
      <point x="238.648" y="25.74" type="line"/>
      <point x="227.936" y="25.74" type="line" smooth="yes"/>
      <point x="184.386" y="25.74"/>
      <point x="151.086" y="28.74"/>
      <point x="151.086" y="35.74" type="curve" smooth="yes"/>
      <point x="151.086" y="604.24" type="line" smooth="yes"/>
      <point x="151.086" y="698.66"/>
      <point x="189.776" y="723.82"/>
      <point x="242.518" y="723.82" type="curve"/>
      <point x="277.82" y="723.82"/>
      <point x="302.856" y="711.03"/>
      <point x="322.58799999999997" y="679.75" type="curve"/>
      <point x="328.504" y="706.31"/>
      <point x="319.192" y="703.44"/>
      <point x="301.546" y="727.05" type="curve"/>
      <point x="301.546" y="640.75" type="line"/>
      <point x="344.508" y="640.75" type="line"/>
      <point x="344.508" y="709.02" type="line"/>
      <point x="327.31600000000003" y="731.93"/>
      <point x="293.594" y="752.0"/>
      <point x="242.91" y="752.0" type="curve"/>
      <point x="169.824" y="752.0"/>
      <point x="112.44200000000001" y="711.61"/>
      <point x="112.44200000000001" y="604.24" type="curve" smooth="yes"/>
      <point x="112.44200000000001" y="61.74" type="line" smooth="yes"/>
      <point x="112.44200000000001" y="32.74"/>
      <point x="86.042" y="25.74"/>
      <point x="41.492" y="25.74" type="curve" smooth="yes"/>
      <point x="32.692" y="25.74" type="line"/>
      <point x="32.692" y="0.0" type="line"/>
    </contour>
  </outline>
</glyph>
<glyph name="f_f_i.alt" format="2">
  <advance width="774.804"/>
  <outline>
    <contour>
      <point x="28.792" y="508.0" type="line"/>
      <point x="28.792" y="483.1" type="line"/>
      <point x="349.508" y="483.1" type="line"/>
      <point x="349.508" y="508.0" type="line"/>
    </contour>
    <contour>
      <point x="293.878" y="508.0" type="line"/>
      <point x="293.878" y="483.1" type="line"/>
      <point x="625.624" y="483.1" type="line"/>
      <point x="625.624" y="508.0" type="line"/>
    </contour>
    <contour>
      <point x="575.576" y="0.0" type="line"/>
      <point x="749.77" y="0.0" type="line"/>
      <point x="749.77" y="25.74" type="line"/>
      <point x="748.392" y="25.74" type="line" smooth="yes"/>
      <point x="709.742" y="25.74"/>
      <point x="681.72" y="32.74"/>
      <point x="681.72" y="61.74" type="curve" smooth="yes"/>
      <point x="681.72" y="508.0" type="line"/>
      <point x="575.4159999999999" y="508.0" type="line"/>
      <point x="575.4159999999999" y="483.1" type="line"/>
      <point x="583.376" y="483.1" type="line" smooth="yes"/>
      <point x="624.636" y="483.1"/>
      <point x="643.076" y="469.24"/>
      <point x="643.076" y="440.24" type="curve"/>
      <point x="643.076" y="35.74" type="line"/>
      <point x="643.076" y="28.74"/>
      <point x="606.876" y="25.74"/>
      <point x="584.376" y="25.74" type="curve" smooth="yes"/>
      <point x="575.576" y="25.74" type="line"/>
    </contour>
    <contour>
      <point x="416.634" y="35.74" type="curve" smooth="yes"/>
      <point x="416.634" y="579.63" type="line" smooth="yes"/>
      <point x="416.634" y="693.31"/>
      <point x="467.602" y="723.82"/>
      <point x="542.032" y="723.82" type="curve" smooth="yes"/>
      <point x="592.196" y="723.82"/>
      <point x="629.916" y="710.31"/>
      <point x="655.314" y="676.89" type="curve"/>
      <point x="660.856" y="705.59"/>
      <point x="648.558" y="703.44"/>
      <point x="631.0" y="727.05" type="curve"/>
      <point x="631.0" y="640.75" type="line"/>
      <point x="674.354" y="640.75" type="line"/>
      <point x="674.354" y="706.58" type="line"/>
      <point x="653.334" y="731.56"/>
      <point x="609.826" y="752.0"/>
      <point x="542.032" y="752.0" type="curve" smooth="yes"/>
      <point x="447.49" y="752.0"/>
      <point x="377.99" y="708.4"/>
      <point x="377.99" y="579.63" type="curve" smooth="yes"/>
      <point x="377.99" y="35.74" type="line"/>
      <point x="377.99" y="28.74"/>
      <point x="345.634" y="25.74"/>
      <point x="302.31600000000003" y="25.74" type="curve" smooth="yes"/>
      <point x="298.24" y="25.74" type="line"/>
      <point x="298.24" y="0.0" type="line"/>
      <point x="502.486" y="0.0" type="line"/>
      <point x="502.486" y="25.74" type="line"/>
      <point x="492.148" y="25.74" type="line" smooth="yes"/>
      <point x="449.382" y="25.74"/>
      <point x="416.634" y="28.74"/>
    </contour>
    <contour>
      <point x="151.086" y="35.74" type="curve" smooth="yes"/>
      <point x="151.086" y="559.63" type="line" smooth="yes"/>
      <point x="151.086" y="673.31"/>
      <point x="205.56" y="703.82"/>
      <point x="279.774" y="703.82" type="curve" smooth="yes"/>
      <point x="332.62" y="703.82"/>
      <point x="375.154" y="686.1"/>
      <point x="401.93" y="639.1" type="curve"/>
      <point x="407.846" y="681.38"/>
      <point x="395.63599999999997" y="679.23"/>
      <point x="377.99" y="693.54" type="curve"/>
      <point x="377.99" y="570.75" type="line"/>
      <point x="414.79200000000003" y="620.75" type="line"/>
      <point x="414.79200000000003" y="681.63" type="line"/>
      <point x="393.454" y="707.63"/>
      <point x="349.192" y="732.0"/>
      <point x="279.774" y="732.0" type="curve" smooth="yes"/>
      <point x="181.87" y="732.0"/>
      <point x="112.44200000000001" y="688.4"/>
      <point x="112.44200000000001" y="559.63" type="curve" smooth="yes"/>
      <point x="112.44200000000001" y="61.74" type="line"/>
      <point x="112.44200000000001" y="32.74"/>
      <point x="86.042" y="25.74"/>
      <point x="41.492" y="25.74" type="curve" smooth="yes"/>
      <point x="32.692" y="25.74" type="line"/>
      <point x="32.692" y="0.0" type="line"/>
      <point x="235.44" y="0.0" type="line"/>
      <point x="235.44" y="25.74" type="line"/>
      <point x="225.976" y="25.74" type="line" smooth="yes"/>
      <point x="183.442" y="25.74"/>
      <point x="151.086" y="28.74"/>
    </contour>
  </outline>
</glyph>
<glyph name="f_h" format="2">
  <advance width="771.528"/>
  <outline>
    <contour>
      <point x="28.792" y="508.0" type="line"/>
      <point x="28.792" y="483.1" type="line"/>
      <point x="278.54200000000003" y="483.1" type="line"/>
      <point x="278.54200000000003" y="508.0" type="line"/>
    </contour>
    <contour>
      <point x="749.652" y="0.0" type="line"/>
      <point x="749.652" y="25.74" type="line"/>
      <point x="748.202" y="25.74" type="line" smooth="yes"/>
      <point x="709.624" y="25.74"/>
      <point x="682.152" y="32.74"/>
      <point x="682.152" y="61.74" type="curve" smooth="yes"/>
      <point x="682.152" y="357.0" type="line" smooth="yes"/>
      <point x="682.152" y="468.0"/>
      <point x="636.4259999999999" y="518.0"/>
      <point x="561.184" y="518.0" type="curve" smooth="yes"/>
      <point x="487.898" y="518.0"/>
      <point x="438.088" y="468.49"/>
      <point x="386.244" y="367.54" type="curve"/>
      <point x="397.178" y="336.12" type="line"/>
      <point x="440.10400000000004" y="429.4"/>
      <point x="489.394" y="487.1"/>
      <point x="554.428" y="487.1" type="curve" smooth="yes"/>
      <point x="620.184" y="487.1"/>
      <point x="643.508" y="443.47"/>
      <point x="643.508" y="346.0" type="curve" smooth="yes"/>
      <point x="643.508" y="35.74" type="line" smooth="yes"/>
      <point x="643.508" y="28.74"/>
      <point x="607.308" y="25.74"/>
      <point x="584.258" y="25.74" type="curve" smooth="yes"/>
      <point x="582.808" y="25.74" type="line"/>
      <point x="582.808" y="0.0" type="line"/>
    </contour>
    <contour>
      <point x="477.334" y="0.0" type="line"/>
      <point x="477.334" y="25.74" type="line"/>
      <point x="474.884" y="25.74" type="line" smooth="yes"/>
      <point x="452.384" y="25.74"/>
      <point x="416.634" y="28.74"/>
      <point x="416.634" y="35.74" type="curve"/>
      <point x="416.634" y="735.0" type="line"/>
      <point x="331.784" y="735.0" type="line"/>
      <point x="377.99" y="703.28" type="line"/>
      <point x="377.99" y="35.74" type="line"/>
      <point x="377.99" y="28.74"/>
      <point x="341.79" y="25.74"/>
      <point x="318.828" y="25.74" type="curve" smooth="yes"/>
      <point x="310.028" y="25.74" type="line"/>
      <point x="310.028" y="0.0" type="line"/>
    </contour>
    <contour>
      <point x="237.4" y="0.0" type="line"/>
      <point x="237.4" y="25.74" type="line"/>
      <point x="226.6" y="25.74" type="line" smooth="yes"/>
      <point x="183.834" y="25.74"/>
      <point x="151.086" y="28.74"/>
      <point x="151.086" y="35.74" type="curve"/>
      <point x="151.086" y="597.75" type="line" smooth="yes"/>
      <point x="151.086" y="696.54"/>
      <point x="190.198" y="723.82"/>
      <point x="264.218" y="723.82" type="curve" smooth="yes"/>
      <point x="312.452" y="723.82"/>
      <point x="358.276" y="708.96"/>
      <point x="395.924" y="676.5" type="curve"/>
      <point x="400.81" y="711.84" type="line"/>
      <point x="370.96" y="726.72"/>
      <point x="326.40999999999997" y="752.0"/>
      <point x="264.45" y="752.0" type="curve" smooth="yes"/>
      <point x="173.394" y="752.0"/>
      <point x="112.44200000000001" y="708.93"/>
      <point x="112.44200000000001" y="597.75" type="curve" smooth="yes"/>
      <point x="112.44200000000001" y="61.74" type="line" smooth="yes"/>
      <point x="112.44200000000001" y="32.74"/>
      <point x="86.042" y="25.74"/>
      <point x="41.492" y="25.74" type="curve" smooth="yes"/>
      <point x="32.692" y="25.74" type="line"/>
      <point x="32.692" y="0.0" type="line"/>
    </contour>
  </outline>
</glyph>
<glyph name="fi.alt" format="2">
  <advance width="511.054"/>
  <outline>
    <contour>
      <point x="28.792" y="508.0" type="line"/>
      <point x="28.792" y="483.1" type="line"/>
      <point x="360.076" y="483.1" type="line"/>
      <point x="360.076" y="508.0" type="line"/>
    </contour>
    <contour>
      <point x="377.99" y="35.74" type="line" smooth="yes"/>
      <point x="377.99" y="28.74"/>
      <point x="341.79" y="25.74"/>
      <point x="318.828" y="25.74" type="curve" smooth="yes"/>
      <point x="310.028" y="25.74" type="line"/>
      <point x="310.028" y="0.0" type="line"/>
      <point x="484.684" y="0.0" type="line"/>
      <point x="484.684" y="25.74" type="line"/>
      <point x="482.844" y="25.74" type="line" smooth="yes"/>
      <point x="444.194" y="25.74"/>
      <point x="416.634" y="32.74"/>
      <point x="416.634" y="61.74" type="curve" smooth="yes"/>
      <point x="416.634" y="508.0" type="line"/>
      <point x="309.868" y="508.0" type="line"/>
      <point x="309.868" y="483.1" type="line"/>
      <point x="318.29" y="483.1" type="line" smooth="yes"/>
      <point x="359.55" y="483.1"/>
      <point x="377.99" y="469.24"/>
      <point x="377.99" y="440.24" type="curve" smooth="yes"/>
    </contour>
    <contour>
      <point x="112.44200000000001" y="61.74" type="line" smooth="yes"/>
      <point x="112.44200000000001" y="32.74"/>
      <point x="86.042" y="25.74"/>
      <point x="41.492" y="25.74" type="curve" smooth="yes"/>
      <point x="32.692" y="25.74" type="line"/>
      <point x="32.692" y="0.0" type="line"/>
      <point x="237.4" y="0.0" type="line"/>
      <point x="237.4" y="25.74" type="line"/>
      <point x="226.6" y="25.74" type="line" smooth="yes"/>
      <point x="183.834" y="25.74"/>
      <point x="151.086" y="28.74"/>
      <point x="151.086" y="35.74" type="curve" smooth="yes"/>
      <point x="151.086" y="579.63" type="line" smooth="yes"/>
      <point x="151.086" y="693.31"/>
      <point x="202.51600000000002" y="723.82"/>
      <point x="276.484" y="723.82" type="curve" smooth="yes"/>
      <point x="327.11" y="723.82"/>
      <point x="364.368" y="710.31"/>
      <point x="389.766" y="676.89" type="curve"/>
      <point x="395.77" y="705.59"/>
      <point x="383.472" y="703.44"/>
      <point x="365.452" y="727.05" type="curve"/>
      <point x="365.452" y="640.75" type="line"/>
      <point x="409.268" y="640.75" type="line"/>
      <point x="409.268" y="706.58" type="line"/>
      <point x="388.248" y="731.56"/>
      <point x="344.74" y="752.0"/>
      <point x="276.484" y="752.0" type="curve" smooth="yes"/>
      <point x="181.942" y="752.0"/>
      <point x="112.44200000000001" y="708.4"/>
      <point x="112.44200000000001" y="579.63" type="curve" smooth="yes"/>
    </contour>
  </outline>
</glyph>
<glyph name="four.den" format="2">
  <advance width="262.69"/>
  <outline>
    <contour>
      <point x="18.208" y="89.28" type="line"/>
      <point x="247.326" y="89.28" type="line"/>
      <point x="247.326" y="120.95" type="line"/>
      <point x="39.258" y="120.95" type="line"/>
      <point x="34.07" y="97.37" type="line"/>
      <point x="166.224" y="316.42" type="line"/>
      <point x="179.75" y="341.0" type="line"/>
      <point x="149.9" y="341.0" type="line"/>
      <point x="18.208" y="123.95" type="line"/>
    </contour>
    <contour>
      <point x="196.832" y="0.0" type="line"/>
      <point x="196.832" y="341.0" type="line"/>
      <point x="166.05" y="341.0" type="line"/>
      <point x="160.7" y="333.4" type="line"/>
      <point x="160.7" y="0.0" type="line"/>
    </contour>
  </outline>
</glyph>
<glyph name="ringhalfright" format="2">
  <advance width="403.75"/>
  <anchor x="201.688" y="566.0" name="_top"/>
  <outline>
    <contour>
      <point x="201.368" y="768.0" type="line"/>
      <point x="248.006" y="768.0"/>
      <point x="285.078" y="735.21"/>
      <point x="285.078" y="677.49" type="curve" smooth="yes"/>
      <point x="285.078" y="619.77"/>
      <point x="247.166" y="586.98"/>
      <point x="201.368" y="586.98" type="curve"/>
      <point x="201.368" y="612.35" type="line"/>
      <point x="229.608" y="612.35"/>
      <point x="251.804" y="634.42"/>
      <point x="251.804" y="677.49" type="curve" smooth="yes"/>
      <point x="251.804" y="720.56"/>
      <point x="229.608" y="742.63"/>
      <point x="201.368" y="742.63" type="curve"/>
    </contour>
  </outline>
</glyph>
<glyph name="six.den" format="2">
  <advance width="261.3"/>
  <outline>
    <contour>
      <point x="205.386" y="328.56" type="line"/>
      <point x="115.50857141472" y="308.004500000666"/>
      <point x="67.778" y="237.0"/>
      <point x="67.778" y="143.21" type="curve" smooth="yes"/>
      <point x="67.778" y="61.07"/>
      <point x="93.234434782616" y="23.37"/>
      <point x="132.042" y="23.37" type="curve" smooth="yes"/>
      <point x="168.622305084736" y="23.37"/>
      <point x="193.378" y="60.79"/>
      <point x="193.378" y="117.14" type="curve" smooth="yes"/>
      <point x="193.378" y="160.0"/>
      <point x="178.489333333304" y="194.35"/>
      <point x="138.84" y="194.35" type="curve" smooth="yes"/>
      <point x="103.269929411752" y="194.35"/>
      <point x="73.59518522508" y="161.2049588089535"/>
      <point x="55.702" y="113.72" type="curve"/>
      <point x="49.584" y="141.37" type="line"/>
      <point x="62.054378900556" y="179.437249396249"/>
      <point x="98.144635514016" y="224.79"/>
      <point x="145.076" y="224.79" type="curve" smooth="yes"/>
      <point x="200.39600000000002" y="224.79"/>
      <point x="233.872" y="181.65"/>
      <point x="233.872" y="117.0" type="curve" smooth="yes"/>
      <point x="233.872" y="47.21"/>
      <point x="190.468" y="-6.0"/>
      <point x="132.202" y="-6.0" type="curve" smooth="yes"/>
      <point x="71.166" y="-6.0"/>
      <point x="27.89" y="47.35"/>
      <point x="27.89" y="143.14" type="curve" smooth="yes"/>
      <point x="27.89" y="249.0"/>
      <point x="91.984" y="337.65"/>
      <point x="202.166" y="358.0" type="curve"/>
    </contour>
  </outline>
</glyph>
<glyph name="zero.slashold" format="2">
  <advance width="452.2"/>
  <outline>
    <contour>
      <point x="92.30799999999999" y="98.72" type="line"/>
      <point x="375.76800000000003" y="423.24" type="line"/>
      <point x="364.182" y="448.35" type="line"/>
      <point x="77.81" y="120.83" type="line"/>
    </contour>
    <contour>
      <point x="226.1" y="17.11" type="curve" smooth="yes"/>
      <point x="129.132" y="17.11"/>
      <point x="72.77000000000001" y="116.81"/>
      <point x="72.77000000000001" y="274.07" type="curve" smooth="yes"/>
      <point x="72.77000000000001" y="429.26"/>
      <point x="129.132" y="529.89"/>
      <point x="226.1" y="529.89" type="curve" smooth="yes"/>
      <point x="323.068" y="529.89"/>
      <point x="379.43" y="429.26"/>
      <point x="379.43" y="274.07" type="curve" smooth="yes"/>
      <point x="379.43" y="115.81"/>
      <point x="323.068" y="17.11"/>
    </contour>
    <contour>
      <point x="226.1" y="-10.93" type="curve" smooth="yes"/>
      <point x="340.774" y="-10.93"/>
      <point x="420.916" y="105.07"/>
      <point x="420.916" y="274.07" type="curve" smooth="yes"/>
      <point x="420.916" y="442.0"/>
      <point x="340.774" y="558.0"/>
      <point x="226.1" y="558.0" type="curve" smooth="yes"/>
      <point x="111.586" y="558.0"/>
      <point x="31.284" y="442.0"/>
      <point x="31.284" y="274.07" type="curve" smooth="yes"/>
      <point x="31.284" y="105.07"/>
      <point x="111.586" y="-10.93"/>
    </contour>
  </outline>
</glyph>
